<svg width="28" height="34" viewBox="0 0 28 34" fill="none" xmlns="http://www.w3.org/2000/svg">
<path d="M17 1H4.2C3.35131 1 2.53737 1.33714 1.93726 1.93726C1.33714 2.53737 1 3.35131 1 4.2V29.8C1 30.6487 1.33714 31.4626 1.93726 32.0627C2.53737 32.6629 3.35131 33 4.2 33H23.4C24.2487 33 25.0626 32.6629 25.6627 32.0627C26.2629 31.4626 26.6 30.6487 26.6 29.8V10.6L17 1Z" stroke="white" stroke-width="2" stroke-linecap="round" stroke-linejoin="round"/>
<path d="M17 1V10.6H26.6" stroke="white" stroke-width="2" stroke-linecap="round" stroke-linejoin="round"/>
<path d="M20.2 18.6H7.39996" stroke="white" stroke-width="2" stroke-linecap="round" stroke-linejoin="round"/>
<path d="M20.2 25H7.39996" stroke="white" stroke-width="2" stroke-linecap="round" stroke-linejoin="round"/>
<path d="M10.6 12.2H8.99996H7.39996" stroke="white" stroke-width="2" stroke-linecap="round" stroke-linejoin="round"/>
</svg>
